<svg width="216" height="55" viewBox="0 0 216 55" fill="none" xmlns="http://www.w3.org/2000/svg">
<path d="M24.6937 14.5988C24.525 13.071 22.7812 0 22.7812 0C22.7812 0 19.2937 6.95988 13.1062 10.9208C8.6625 14.2027 3.4875 17.5412 0.899996 22.6337C-0.562504 26.1986 -0.112504 29.7068 1.29375 33.1584C1.4625 33.5545 2.75625 35.7613 3.20625 36.4969L2.3625 34.1204C0.787496 29.1975 1.63125 24.4444 5.5125 20.8796C8.4375 18.2202 12.0937 16.4095 15.4125 14.3158C16.1437 13.8632 19.8 11.2037 19.8 11.2037C19.8 11.2037 20.1937 15.7305 20.25 16.749C20.5875 22.6337 21.6562 32.0267 16.7625 36.4969C15.5812 37.572 13.725 38.5905 12.0937 38.1944C10.1812 37.7418 10.5187 35.8745 10.6312 34.4033C10.7437 32.9887 10.1812 31.178 8.38125 31.5175C6.91875 31.8004 6.13125 33.5545 5.625 34.7428C3.99375 38.4208 3.65625 42.3251 3.99375 46.3992C4.1625 47.9835 4.5 49.5113 5.0625 50.9825C5.625 52.4537 6.4125 53.8117 7.36875 55C6.75 53.5854 6.3 52.1708 5.9625 50.6996C5.2875 47.2479 5.68125 43.6265 6.6375 40.2881C6.69375 40.0617 7.0875 38.8735 7.0875 38.8735C7.0875 38.8735 8.71875 42.608 14.0062 42.2685C18.8437 41.929 22.3312 38.0247 23.9062 33.6111C26.4375 26.3117 24.8625 16.1265 24.6937 14.5988Z" fill="#8A2061"/>
<path d="M40.725 33.4414C40.725 33.4414 40.725 33.3282 40.725 33.1019C40.725 32.8755 40.725 32.5926 40.7812 32.2531C40.7812 31.9136 40.8375 31.5175 40.8375 31.0648C40.8375 30.6122 40.8937 30.1595 40.8937 29.7068C40.8937 29.2541 40.95 28.8015 40.95 28.3488C40.95 27.8961 41.0062 27.5 41.0062 27.2171C41.0062 26.9908 41.0062 26.7078 41.0062 26.3117C41.0062 25.9722 41.0062 25.5761 41.0062 25.1801C41.0062 24.784 41.0062 24.3879 41.0062 23.9352V22.6903V21.5587C41.0062 21.2191 41.0062 20.8796 41.0062 20.5967C41.0062 20.3138 41.0062 20.0875 41.0062 19.9177V19.6348V19.4084H43.1437L43.2 19.8611C43.3687 19.748 43.5375 19.6914 43.7062 19.6348C43.875 19.5782 44.0437 19.5782 44.2125 19.5216C44.2687 19.5216 44.2687 19.5216 44.325 19.5216C44.3812 19.5216 44.3812 19.5216 44.4375 19.5216C44.55 19.5216 44.6062 19.465 44.775 19.465C44.8875 19.465 45 19.465 45.1687 19.465C45.2812 19.465 45.45 19.465 45.5625 19.465H45.9562H46.35C46.9125 19.465 47.475 19.5782 47.9812 19.748C48.4875 19.9743 48.9375 20.2572 49.3312 20.6533C49.725 21.0494 50.0625 21.5021 50.2875 22.0113C50.5125 22.5206 50.625 23.0864 50.625 23.6523C50.625 24.2181 50.5125 24.7274 50.2875 25.2932C50.0625 25.8025 49.725 26.2552 49.3312 26.6512C48.9375 27.0473 48.4875 27.3303 47.9812 27.5566C47.475 27.7829 46.9125 27.8961 46.4062 27.8961H46.35C46.2937 27.8961 46.2375 27.8961 46.1812 27.8961C46.125 27.8961 46.0687 27.8961 46.0125 27.8961C45.675 27.8961 45.3937 27.8961 45.1125 27.8395C44.8312 27.7829 44.4937 27.7829 44.2125 27.7263C44.1 27.7263 43.9312 27.6698 43.875 27.6698C43.7625 27.6698 43.7062 27.6132 43.5937 27.6132L43.8187 33.7243H40.8375L40.725 33.4414ZM43.425 25.0669C43.425 25.1235 43.425 25.1801 43.4812 25.2366C43.5375 25.2932 43.5937 25.3498 43.7062 25.4064C43.7625 25.463 43.875 25.463 44.0437 25.463C44.2125 25.463 44.3812 25.5196 44.55 25.5196C44.7187 25.5196 44.9437 25.5196 45.1125 25.5196H45.6187C45.675 25.5196 45.7312 25.5196 45.7875 25.5196C45.8437 25.5196 45.9 25.5196 46.0125 25.5196H46.4062C46.6312 25.5196 46.8562 25.463 47.0812 25.3498C47.3062 25.2366 47.475 25.1235 47.6437 24.9537C47.8125 24.784 47.925 24.5576 48.0375 24.3313C48.15 24.1049 48.2062 23.822 48.2062 23.5957C48.2062 23.3128 48.15 23.0864 48.0375 22.8601C47.925 22.6338 47.8125 22.4074 47.6437 22.2377C47.475 22.0679 47.3062 21.8982 47.0812 21.785C46.8562 21.6718 46.6312 21.6152 46.4062 21.6152C45.8437 21.6152 45.3937 21.6152 45 21.6152C44.6062 21.6152 44.325 21.6718 44.1 21.7284C44.0437 21.7284 43.9875 21.785 43.875 21.785C43.8187 21.8416 43.7062 21.8416 43.65 21.8982C43.5937 21.9547 43.4812 22.0113 43.425 22.0679C43.3687 22.1245 43.3125 22.1811 43.3125 22.2943L43.425 25.0669Z" fill="#8A2061"/>
<path d="M62.2125 33.6676L59.4 28.7448C59.3437 28.6882 59.3437 28.6316 59.2875 28.5185C59.2312 28.4053 59.1187 28.3487 59.0625 28.2355C58.95 28.1224 58.8375 28.0658 58.6687 28.0092C58.5 27.9526 58.3312 27.896 58.1625 27.896H56.25L56.4187 33.6676H53.4937L53.8875 19.465H59.9062C60.525 19.465 61.0875 19.5781 61.65 19.8045C62.1562 20.0308 62.6625 20.3137 63.0562 20.7098C63.45 21.1059 63.7312 21.5586 63.9562 22.0678C64.1812 22.5771 64.2937 23.1429 64.2937 23.7088C64.2937 24.1615 64.2375 24.6141 64.0687 25.0102C63.9 25.4629 63.7312 25.859 63.45 26.1985C63.225 26.538 62.9437 26.8209 62.6062 27.0473C62.2687 27.2736 61.9312 27.4999 61.5937 27.6131L65.025 32.4794V33.6676H62.2125ZM60.075 25.4629C60.3 25.4629 60.525 25.4063 60.75 25.2932C60.975 25.18 61.1437 25.0102 61.3125 24.8405C61.4812 24.6707 61.5937 24.4444 61.7062 24.1615C61.8187 23.9351 61.875 23.6522 61.875 23.3693C61.875 23.1429 61.8187 22.9166 61.7625 22.6903C61.7062 22.4639 61.5937 22.2942 61.425 22.0678C61.2562 21.8981 61.0875 21.7283 60.8625 21.6152C60.6375 21.502 60.3562 21.4454 60.075 21.4454H56.1375L56.25 25.3497H60.075V25.4629Z" fill="#8A2061"/>
<path d="M75.7125 19.465L81.0563 33.7242H77.9625L76.8375 29.6502H72.225L71.1 33.7242H68.0062L73.4062 19.5215L75.7125 19.465ZM72.7875 27.4434H76.2187L74.5312 22.0113L72.7875 27.4434Z" fill="#8A2061"/>
<path d="M91.575 19.465L96.9187 33.7242H93.825L92.7 29.6502H88.0875L86.9625 33.7242H83.8688L89.2687 19.5215L91.575 19.465ZM88.65 27.4434H92.0812L90.3937 22.0113L88.65 27.4434Z" fill="#8A2061"/>
<path d="M102.094 33.6676L97.4812 19.465H99.6187L103.5 29.3672L107.381 19.465H109.519L104.906 33.6676H102.094Z" fill="#8A2061"/>
<path d="M117.9 19.465L123.244 33.7242H120.15L119.025 29.6502H114.412L113.287 33.7242H110.194L115.594 19.5215L117.9 19.465ZM114.975 27.4434H118.406L116.719 22.0113L114.975 27.4434Z" fill="#8A2061"/>
<path d="M144.844 33.6676H142.256L142.481 27.217L138.825 27.1039L135.675 27.217L135.9 33.6676H133.312L133.706 19.465H135.506L135.619 25.0668L138.825 25.18L142.537 25.0668L142.65 19.465H144.45L144.844 33.6676Z" fill="#8A2061"/>
<path d="M150.075 19.465L149.681 33.6676H158.512V31.4608H152.156L152.044 27.217H157.162L157.219 25.2366H151.988L151.875 21.1625H158.512V19.465H150.075Z" fill="#8A2061"/>
<path d="M175.612 33.6677H172.912L171.731 29.4805H166.669L165.544 33.6677H162.844L168.244 19.4084H170.269L175.612 33.6677ZM171.337 27.7263L169.256 21.106L167.119 27.7263H171.337Z" fill="#8A2061"/>
<path d="M182.025 31.4608H186.919L187.594 32.4228V33.6676H179.55L179.944 19.465H181.688L182.025 31.4608Z" fill="#8A2061"/>
<path d="M200.137 21.1625H195.525L195.862 33.6676H193.331L193.725 21.1625H189.112V19.465H200.137V21.1625Z" fill="#8A2061"/>
<path d="M216 33.6676H213.412L213.637 27.217L209.981 27.1039L206.831 27.217L207.056 33.6676H204.469L204.862 19.465H206.662L206.775 25.0668L209.925 25.18L213.694 25.0668L213.806 19.465H215.606L216 33.6676Z" fill="#8A2061"/>
</svg>
